{"title":"Chloe.2009.1080p-CHD-Reupload","uid":8126789,"size":9382752078,"categoryP":"video","categoryS":"hd___movies","magnet":"?xt=urn:btih:25313f85d068cf31559e379642745fac96e545e0&amp;dn=Chloe.2009.1080p-CHD-Reupload&amp;tr=udp%3A%2F%2Ftracker.openbittorrent.com%3A80&amp;tr=udp%3A%2F%2Fopen.demonii.com%3A1337&amp;tr=udp%3A%2F%2Ftracker.coppersurfer.tk%3A6969&amp;tr=udp%3A%2F%2Fexodus.desync.com%3A6969","seeders":4,"leechers":4,"uploader":"imravi1","files":32,"time":1360513213,"description":" &lt;a href=&quot;http://www.imdb.com/title/tt1352824/&quot; rel=&quot;nofollow&quot; target=&quot;_NEW&quot;&gt;http://www.imdb.com/title/tt1352824/&lt;/a&gt;\n\nIMDB Rating 6.3\n\nAnother re upload of a old dead torrent. All credits to original up loader only.\n\nPlease reseed after download. \n\nMy upload speed is only 512 kbps (adsl) so please keep patience.\nI will seed the torrent 24x7 for some weeks. \n\n\nChloe.2009.BluRay.1080p.DTS.x264-CHD.mkv\nFormat                                   : Matroska\nFormat version                           : Version 1\nFile size                                : 8.74 GiB\nDuration                                 : 1h 36mn\nOverall bit rate                         : 13.0 Mbps\nEncoded date                             : UTC 2010-05-06 03:04:33\nWriting application                      : mkvmerge v2.5.3 ('Boogie') built on Mar  7 2009 15:00:41\nWriting library                          : libebml v0.7.7 + libmatroska v0.8.1\n\nVideo\nID                                       : 1\nFormat                                   : AVC\nFormat/Info                              : Advanced Video Codec\nFormat profile                           : &lt;a class=&quot;__cf_email__&quot; href=&quot;/cdn-cgi/l/email-protection&quot; data-cfemail=&quot;054d6c626d4549312b34&quot;&gt;[email&amp;#160;protected]&lt;/a&gt;&lt;script cf-hash='f9e31' type=&quot;text/javascript&quot;&gt;\n/* &lt;![CDATA[ */!function(){try{var t=&quot;currentScript&quot;in document?document.currentScript:function(){for(var t=document.getElementsByTagName(&quot;script&quot;),e=t.length;e--;)if(t[e].getAttribute(&quot;cf-hash&quot;))return t[e]}();if(t&amp;&amp;t.previousSibling){var e,r,n,i,c=t.previousSibling,a=c.getAttribute(&quot;data-cfemail&quot;);if(a){for(e=&quot;&quot;,r=parseInt(a.substr(0,2),16),n=2;a.length-n;n+=2)i=parseInt(a.substr(n,2),16)^r,e+=String.fromCharCode(i);e=document.createTextNode(e),c.parentNode.replaceChild(e,c)}}}catch(u){}}();/* ]]&gt; */&lt;/script&gt;\nFormat settings, CABAC                   : Yes\nFormat settings, ReFrames                : 4 frames\nCodec ID                                 : V_MPEG4/ISO/AVC\nDuration                                 : 1h 36mn\nBit rate                                 : 11.5 Mbps\nWidth                                    : 1 920 pixels\nHeight                                   : 1 080 pixels\nDisplay aspect ratio                     : 16:9\nFrame rate                               : 24.000 fps\nColor space                              : YUV\nChroma subsampling                       : 4:2:0\nBit depth                                : 8 bits\nScan type                                : Progressive\nBits/(Pixel*Frame)                       : 0.232\nStream size                              : 7.55 GiB (86%)\nTitle                                    : Chloe.2009.BluRay.1080p.DTS.x264-CHD\n\nLanguage                                 : English\nDefault                                  : Yes\nForced                                   : No\n\nAudio\nID                                       : 2\nFormat                                   : DTS\nFormat/Info                              : Digital Theater Systems\nCodec ID                                 : A_DTS\nDuration                                 : 1h 36mn\nBit rate mode                            : Constant\nBit rate                                 : 1 510 Kbps\nChannel(s)                               : 6 channels\nChannel positions                        : Front: L C R, Side: L R, LFE\nSampling rate                            : 48.0 KHz\nBit depth                                : 24 bits\nCompression mode                         : Lossy\nStream size                              : 1.01 GiB (12%)\nTitle                                    : DTS 5.1CH 1536Kbps\nLanguage                                 : English\nDefault                                  : Yes\nForced                                   : No\n\n","torrent":{"xt":"urn:btih:25313f85d068cf31559e379642745fac96e545e0","amp;dn":"Chloe.2009.1080p-CHD-Reupload","amp;tr":["udp%3A%2F%2Ftracker.openbittorrent.com%3A80","udp%3A%2F%2Fopen.demonii.com%3A1337","udp%3A%2F%2Ftracker.coppersurfer.tk%3A6969","udp%3A%2F%2Fexodus.desync.com%3A6969"],"infoHash":"25313f85d068cf31559e379642745fac96e545e0","infoHashBuffer":{"type":"Buffer","data":[37,49,63,133,208,104,207,49,85,158,55,150,66,116,95,172,150,229,69,224]},"announce":[],"urlList":[]}}